<svg xmlns="http://www.w3.org/2000/svg" width="800" height="600" viewBox="0 0 800 600">
  <rect width="800" height="600" fill="#f5f5f5"/>
  <g transform="translate(200,100)">
    <rect x="0" y="0" width="400" height="400" rx="10" fill="#ffffff" stroke="#333" stroke-width="2"/>
    <g transform="translate(50,50)">
      <rect x="0" y="0" width="300" height="60" rx="5" fill="#f44336" fill-opacity="0.1"/>
      <text x="20" y="35" font-family="Arial" font-size="16" fill="#f44336">Critical Vulnerability Detected</text>
      <circle cx="270" cy="30" r="20" fill="#f44336"/>
      <text x="265" y="35" font-family="Arial" font-size="14" fill="white">3</text>
    </g>
    <g transform="translate(50,130)">
      <rect x="0" y="0" width="300" height="60" rx="5" fill="#ff9800" fill-opacity="0.1"/>
      <text x="20" y="35" font-family="Arial" font-size="16" fill="#ff9800">Medium Risk Issues</text>
      <circle cx="270" cy="30" r="20" fill="#ff9800"/>
      <text x="265" y="35" font-family="Arial" font-size="14" fill="white">7</text>
    </g>
    <g transform="translate(50,210)">
      <rect x="0" y="0" width="300" height="60" rx="5" fill="#4caf50" fill-opacity="0.1"/>
      <text x="20" y="35" font-family="Arial" font-size="16" fill="#4caf50">System Status: Scanning</text>
      <circle cx="270" cy="30" r="20" fill="#4caf50"/>
      <text x="265" y="35" font-family="Arial" font-size="14" fill="white">✓</text>
    </g>
    <g transform="translate(50,290)">
      <rect x="0" y="0" width="300" height="80" rx="5" fill="#2196f3" fill-opacity="0.1"/>
      <text x="20" y="35" font-family="Arial" font-size="16" fill="#2196f3">Scan Progress</text>
      <rect x="20" y="45" width="260" height="20" rx="10" fill="#e0e0e0"/>
      <rect x="20" y="45" width="182" height="20" rx="10" fill="#2196f3"/>
      <text x="250" y="60" font-family="Arial" font-size="14" fill="#666">70%</text>
    </g>
  </g>
</svg>